<svg width="169" height="86" viewBox="0 0 169 86" fill="none" xmlns="http://www.w3.org/2000/svg">
<g clip-path="url(#clip0_903_786)">
<path d="M10.3981 64.5446H11.1409V69.6525C10.4091 69.6509 9.68429 69.7951 9.0078 70.0769C8.33132 70.3586 7.7165 70.7723 7.19853 71.2943C6.68057 71.8163 6.26962 72.4363 5.98924 73.1189C5.70885 73.8016 5.56455 74.5333 5.56455 75.2723V85.3928H0.011752V75.2723C-0.0362959 73.8702 0.198203 72.4728 0.701022 71.1649C1.20384 69.857 1.9645 68.6658 2.93685 67.6638C3.9092 66.6617 5.07297 65.8696 6.35758 65.3355C7.64219 64.8014 9.02087 64.5364 10.4099 64.5566" fill="white"/>
<path d="M34.2008 75.2724C34.1982 75.9277 34.1351 76.5814 34.0122 77.225H17.7783C18.1812 78.2991 18.8972 79.2247 19.8317 79.8794C20.7662 80.5341 21.8754 80.8872 23.0127 80.8922C23.8589 80.8923 24.6939 80.6972 25.454 80.3216C26.2141 79.946 26.8791 79.4 27.3983 78.7252H33.5642C32.7591 80.898 31.3058 82.7648 29.4053 84.0679C27.5047 85.371 25.2505 86.0461 22.9538 86C20.881 85.8952 18.8842 85.1788 17.2105 83.9395C15.5368 82.7001 14.2597 80.9923 13.5373 79.0273C12.815 77.0624 12.6791 74.9267 13.1465 72.8845C13.6138 70.8424 14.664 68.9835 16.1668 67.538C17.6697 66.0925 19.5593 65.1238 21.6018 64.7519C23.6442 64.38 25.7498 64.6212 27.6579 65.4457C29.566 66.2701 31.1927 67.6416 32.3368 69.3903C33.4809 71.1391 34.0921 73.1883 34.0947 75.2843L34.2008 75.2724ZM28.2 73.3316C27.8014 72.2545 27.0865 71.3261 26.151 70.6706C25.2156 70.0151 24.1041 69.6639 22.9655 69.6639C21.827 69.6639 20.7156 70.0151 19.7801 70.6706C18.8446 71.3261 18.1298 72.2545 17.7311 73.3316H28.2Z" fill="white"/>
<path d="M51.7198 79.0943C51.7198 83.452 47.8529 86 43.5498 86C39.2467 86 35.3798 83.452 35.3798 79.0943H40.9443C40.9443 80.8207 42.3237 81.2732 43.5498 81.2732C44.7758 81.2732 46.1434 80.6302 46.1434 79.3205C46.1434 78.3799 44.9645 77.5227 43.255 77.2964C39.3528 76.8083 35.6038 74.4151 35.6038 71.2242C35.6038 67.1045 39.2467 64.5446 43.5498 64.5446C47.8529 64.5446 51.4958 67.1045 51.4958 71.4504H45.9194C45.9194 69.724 44.7405 69.2715 43.5616 69.2715C42.3826 69.2715 41.2037 69.7239 41.2037 71.0694C41.2037 72.4148 43.6558 73.2125 45.8133 73.4507C48.7488 73.784 51.708 75.6652 51.708 79.0705" fill="white"/>
<path d="M75.2159 75.2724C75.2133 75.9277 75.1502 76.5814 75.0273 77.225H58.8406C59.2435 78.2991 59.9595 79.2247 60.894 79.8794C61.8285 80.5341 62.9377 80.8872 64.075 80.8922C64.9214 80.8932 65.7566 80.6985 66.5169 80.3228C67.2771 79.9472 67.942 79.4007 68.4606 78.7252H74.6264C73.8246 80.8883 72.3805 82.7483 70.4917 84.0506C68.6029 85.3528 66.3618 86.0337 64.075 86C62.0022 85.8952 60.0054 85.1788 58.3317 83.9395C56.658 82.7001 55.3809 80.9923 54.6585 79.0273C53.9362 77.0624 53.8003 74.9267 54.2677 72.8845C54.735 70.8424 55.7852 68.9835 57.288 67.538C58.7909 66.0925 60.6805 65.1238 62.723 64.7519C64.7654 64.38 66.8709 64.6212 68.779 65.4457C70.6871 66.2701 72.314 67.6416 73.4581 69.3903C74.6022 71.1391 75.2133 73.1883 75.2159 75.2843V75.2724ZM69.3212 73.3316C68.9226 72.2545 68.2077 71.3261 67.2723 70.6706C66.3368 70.0151 65.2253 69.6639 64.0868 69.6639C62.9482 69.6639 61.8368 70.0151 60.9013 70.6706C59.9658 71.3261 59.2509 72.2545 58.8523 73.3316H69.3212Z" fill="white"/>
<path d="M87.0995 64.5446C88.4782 64.5462 89.8398 64.8529 91.0884 65.4433C92.337 66.0337 93.4423 66.8934 94.3264 67.9618C95.2117 66.8918 96.3189 66.0312 97.5697 65.4408C98.8204 64.8503 100.184 64.5444 101.565 64.5446C107.731 64.5446 111.586 69.3072 111.586 75.2604V85.3809H106.021V75.2604C106.021 72.1528 104.654 69.6406 101.565 69.6406C98.4762 69.6406 97.1086 72.1528 97.1086 75.2604V85.3809H91.5441V75.2604C91.5441 72.1528 90.1647 69.6406 87.0877 69.6406C84.0107 69.6406 82.6314 72.1528 82.6314 75.2604V85.3809H77.0668V75.2604C77.0668 69.3072 80.9219 64.5446 87.0877 64.5446" fill="white"/>
<path d="M136.626 75.2723C136.571 78.1693 135.378 80.9253 133.311 82.9347C131.244 84.944 128.472 86.0423 125.603 85.9881C124.453 85.9867 123.32 85.7018 122.303 85.1582C121.286 84.6146 120.416 83.8287 119.768 82.8686V85.3809H114.569V58.4009H120.145V66.8426C120.859 66.1135 121.709 65.5349 122.646 65.1404C123.583 64.746 124.588 64.5434 125.603 64.5447C128.472 64.4904 131.244 65.5887 133.311 67.5981C135.378 69.6075 136.571 72.3635 136.626 75.2604V75.2723ZM131.062 75.2604C131.062 74.1466 130.735 73.0577 130.122 72.1316C129.509 71.2055 128.638 70.4837 127.62 70.0574C126.601 69.6311 125.479 69.5196 124.398 69.7369C123.316 69.9542 122.322 70.4906 121.542 71.2782C120.763 72.0658 120.232 73.0693 120.016 74.1617C119.801 75.2542 119.912 76.3865 120.334 77.4156C120.756 78.4447 121.47 79.3242 122.387 79.943C123.304 80.5619 124.383 80.8922 125.486 80.8922C126.218 80.8937 126.944 80.7491 127.621 80.4667C128.299 80.1842 128.914 79.7694 129.432 79.2462C129.95 78.7229 130.361 78.1014 130.641 77.4174C130.92 76.7335 131.063 76.0004 131.062 75.2604Z" fill="white"/>
<path d="M169 58.4009V85.3928H163.801V83.0115C163.133 83.9394 162.257 84.6948 161.245 85.2162C160.233 85.7375 159.113 86.0102 157.977 86.0119C155.163 86.0119 152.464 84.883 150.474 82.8734C148.484 80.8638 147.367 78.1381 147.367 75.2961C147.367 72.4541 148.484 69.7286 150.474 67.719C152.464 65.7094 155.163 64.5804 157.977 64.5804C159.995 64.5857 161.944 65.3206 163.471 66.6521V58.4367L169 58.4009ZM158.083 80.8922C159.184 80.8922 160.259 80.5626 161.175 79.945C162.09 79.3275 162.803 78.4499 163.224 77.423C163.645 76.3961 163.755 75.2661 163.541 74.176C163.326 73.0858 162.796 72.0845 162.018 71.2985C161.24 70.5126 160.248 69.9773 159.169 69.7605C158.089 69.5437 156.97 69.6549 155.954 70.0803C154.937 70.5056 154.068 71.226 153.456 72.1501C152.845 73.0743 152.519 74.1608 152.519 75.2723C152.519 76.7628 153.105 78.1922 154.148 79.2462C155.192 80.3001 156.607 80.8922 158.083 80.8922Z" fill="white"/>
<path d="M144.608 64.3541C141.071 64.5446 139.031 67.9975 139.031 72.2005V85.3928H144.608V64.3541Z" fill="white"/>
<path d="M83.1501 27.7419L83.1628 27.7547L83.1501 27.7419Z" fill="white"/>
<path d="M109.888 28.0515L110.159 28.1229L109.888 28.0515Z" fill="white"/>
<path d="M59.265 18.8955C59.0174 19.7766 58.8052 20.6457 58.6401 21.5149C72.7831 27.1868 84.132 38.276 90.212 52.3644C91.0936 52.1633 91.9633 51.9129 92.8174 51.6143C89.6612 44.1784 85.0696 37.4521 79.3108 31.8283C73.552 26.2044 66.7414 21.7958 59.2768 18.8598" fill="white"/>
<path d="M95.6115 44.4586C95.3639 43.9942 95.1163 43.5299 94.8569 43.0655C94.2792 42.0297 93.6779 41.0176 93.0413 40.0056C92.4047 38.9935 91.8624 38.1958 91.2612 37.3147C90.6599 36.4336 89.7522 35.2073 88.9033 34.1833C88.5732 33.7547 88.2195 33.3261 87.8777 32.8974L86.8166 31.6354C86.0149 30.7186 85.1779 29.8256 84.3291 28.9445C83.94 28.5397 83.5392 28.1349 83.1501 27.7539C82.7493 27.349 82.3367 26.968 81.9712 26.5632C78.6421 23.4747 75.0031 20.7452 71.1132 18.4192C70.4058 17.9906 69.6985 17.5739 68.9675 17.2286C68.2366 16.8238 67.5057 16.4428 66.7629 16.038C65.191 15.2442 63.5444 14.502 61.8232 13.8115L61.4931 13.6805C61.0687 14.4663 60.6679 15.2879 60.3142 16.1213C68.1522 19.2096 75.3015 23.8456 81.344 29.758C87.3865 35.6704 92.2009 42.7405 95.5053 50.5546C96.3188 50.1617 97.1087 49.745 97.8632 49.2806C97.368 48.09 96.8375 46.9946 96.2834 45.8754L95.5642 44.4586" fill="white"/>
<path d="M58.5812 31.2901C58.798 32.4756 59.0934 33.645 59.4654 34.7905C66.7568 38.8132 72.8378 44.7489 77.0668 51.9715C78.2261 52.3167 79.4079 52.5793 80.6036 52.7573C75.7362 43.4198 68.029 35.9073 58.6166 31.3258" fill="white"/>
<path d="M58.2039 24.8606C58.1449 25.8488 58.1449 26.8252 58.2039 27.8015C69.5369 32.817 78.711 41.7738 84.0579 53.0431C85.026 53.0574 85.9942 53.0177 86.9581 52.924C81.2545 40.2263 70.9836 30.1939 58.2275 24.8606" fill="white"/>
<path d="M86.8402 31.6354L87.9012 32.8974L88.9386 34.1833C95.6286 33.7623 102.34 34.528 108.768 36.4455C109.063 35.6835 109.334 34.9096 109.57 34.0642L109.641 33.838C102.248 31.6262 94.5043 30.8663 86.8284 31.5996" fill="white"/>
<path d="M109.888 28.0515L108.709 27.7181C106.776 27.23 104.843 26.8252 102.909 26.5275L101.624 26.337H101.494L100.186 26.1703L99.0068 26.0393H98.7829L97.5214 25.9322C92.3527 25.5456 87.1568 25.7774 82.042 26.6227C82.4546 27.0156 82.8672 27.3967 83.2209 27.8134C83.6218 28.2063 84.0226 28.6111 84.3999 29.004C93.0914 27.8512 101.926 28.5447 110.336 31.04C110.499 30.1385 110.609 29.2281 110.666 28.3135L110.195 28.1825L109.924 28.111" fill="white"/>
<path d="M91.2612 37.3147C91.8743 38.1958 92.4401 39.1007 93.0414 40.0056C97.3861 40.0516 101.708 40.6517 105.904 41.7915C106.434 41.0176 106.929 40.2199 107.389 39.4102C102.146 37.9062 96.7096 37.2078 91.2612 37.3385" fill="white"/>
<path d="M94.8569 43.0655C95.1163 43.5299 95.3639 43.9942 95.6115 44.4586L96.3306 45.8754C98.0833 46.0327 99.8266 46.2831 101.553 46.6255C102.383 45.9189 103.17 45.1635 103.911 44.3633C100.956 43.6474 97.94 43.2129 94.9041 43.0655" fill="white"/>
<path d="M87.7126 0.202423C83.9624 -0.274717 80.1543 0.0704477 76.5481 1.21444C81.3795 1.54461 86.1577 2.43144 90.7896 3.85766C95.8803 5.42737 100.753 7.64384 105.29 10.4538C103.003 7.42159 100.091 4.92724 96.755 3.14327C95.0574 2.4527 93.3244 1.84549 91.556 1.29779C90.2827 0.90488 88.9977 0.559613 87.7126 0.23814" fill="white"/>
<path d="M70.4412 4.07203C69.0704 4.94018 67.7836 5.93678 66.5979 7.04863C74.406 6.26098 82.2911 7.09009 89.771 9.48532C97.2509 11.8806 104.168 15.7915 110.101 20.9791C109.764 19.3819 109.283 17.8195 108.662 16.3118C97.6698 7.96298 84.1888 3.64585 70.4412 4.07203Z" fill="white"/>
<path d="M63.2969 10.7515C62.6188 11.6829 62.0005 12.6573 61.4459 13.6686L61.7761 13.7995C70.1217 12.0346 78.7699 12.3818 86.9504 14.8103C95.1309 17.2387 102.59 21.673 108.662 27.7181L109.841 28.0515L110.112 28.1229L110.584 28.2539C110.584 27.48 110.655 26.6942 110.584 25.8726C104.445 19.7282 96.9458 15.1477 88.7068 12.5101C80.4678 9.87242 71.7254 9.25327 63.2025 10.7038" fill="white"/>
<path d="M86.5572 17.8239C80.1377 15.8456 73.3824 15.2295 66.7158 16.0141C67.4585 16.3832 68.1895 16.7643 68.9204 17.2048C69.6514 17.5977 70.3587 18.0144 71.0661 18.3954C80.3981 18.1579 89.5818 20.7859 97.4034 25.9322L98.6649 26.0393H98.9007L100.08 26.1703L101.388 26.337H101.518L102.803 26.5275C97.9662 22.6073 92.432 19.6571 86.4983 17.8358" fill="white"/>
</g>
<defs>
<clipPath id="clip0_903_786">
<rect width="169" height="86" fill="white"/>
</clipPath>
</defs>
</svg>
